# xmcd
#
# Track frame offsets:
#	150
#	9541
#	24591
#	33178
#	40975
#	52500
#	58756
#	69975
#	76174
#	88314
#	101812
#	117180
#	126119
#	136011
#	148211
#	157281
#	170007
#	176172
#	183109
#	191436
#	201216
#	210940
#	223114
#	236999
#	248063
#	259562
#	273261
#	281252
#	295287
#	308595
#
# Disc length: 4230 seconds
#
# Revision: 1
# Processed by: cddbd v1.5.2PL0 Copyright (c) Steve Scherf et al.
# Submitted via: audiograbber 1.83.01
#
DISCID=af10841e
DTITLE=Deutsche Märsche - Deutsche Märsche CD2
DYEAR=2011
DGENRE=Märsche
TTITLE0=Alexander-Marsch (Leonhardt)
TTITLE1=Amboß-Polka (Parlow)
TTITLE2=Bayerischer Defiliermarsch (Scherzer)
TTITLE3=Bayerischer Präsentiermarsch (Trad.)
TTITLE4=Defiliermarsch (Faust)
TTITLE5=Der Hohenfriedberger (Trad.)
TTITLE6=Der Königsgrätzer (Piefke)
TTITLE7=Der Pappenheimer (Trad.)
TTITLE8=Der Rheinströmer (Trad.)
TTITLE9=Der Torgauer Parademarsch (Trad.)
TTITLE10=Des Großen Kurfürsten Reitermarsch (v. Moltke)
TTITLE11=Die schwarzen Jäger (Partzsch)
TTITLE12=Frei Weg! (Latann)
TTITLE13=Fridericus Rex-Grenadiermarsch (Radeck)
TTITLE14=Frohsinn-Marsch (Hauschild)
TTITLE15=Galoppmarsch aus der Oper ''Das Nachtlager von Granada (Kreutzer)
TTITLE16=Galoppmarsch aus der Operette ''Die schöne Galathee'' (von Suppé)
TTITLE17=Galoppmarsch aus der Operette ''Leichte Kavallerie'' (von Suppé)
TTITLE18=Glück auf! (Faust)
TTITLE19=Gruß an Kiel (Spohr)
TTITLE20=Helenenmarsch (Lübbert)
TTITLE21=König Karl-Marsch (Unrath)
TTITLE22=König Ludwig II.Marsch (Seifert)
TTITLE23=Kreuzritter-Fanfare (Henrion)
TTITLE24=Marsch ''Infanterie-Regiment Großherzog Friedrich von Baden'' (Haefele
TTITLE24=)
TTITLE25=Marsch aus der Zeit Friedrichs des Großen (Trad.)
TTITLE26=Marsch aus Petersburg (1837)(Trad.)
TTITLE27=Marsch der Finnländischen Reiterei (Trad.)
TTITLE28=Marsch der Freiwilligen Jäger (Trad.)
TTITLE29=Marsch der Hannoverschen Garde du Corps (Trad.)
EXTD=
EXTT0=
EXTT1=
EXTT2=
EXTT3=
EXTT4=
EXTT5=
EXTT6=
EXTT7=
EXTT8=
EXTT9=
EXTT10=
EXTT11=
EXTT12=
EXTT13=
EXTT14=
EXTT15=
EXTT16=
EXTT17=
EXTT18=
EXTT19=
EXTT20=
EXTT21=
EXTT22=
EXTT23=
EXTT24=
EXTT25=
EXTT26=
EXTT27=
EXTT28=
EXTT29=
PLAYORDER=
